<svg width="153" height="20" viewBox="0 0 153 20" fill="none" xmlns="http://www.w3.org/2000/svg">
<path d="M8.108 9.75276C8.108 8.86902 7.90147 8.08697 7.48842 7.40663C7.08248 6.72628 6.42017 6.38611 5.50148 6.38611C4.39762 6.38611 3.63916 6.90163 3.22611 7.93267C3.01246 8.47975 2.90563 9.17412 2.90563 10.0158C2.90563 11.3484 3.26528 12.2848 3.98456 12.8248C4.41186 13.1405 4.9175 13.2983 5.50148 13.2983C6.34895 13.2983 6.99346 12.9756 7.435 12.3304C7.88367 11.6851 8.108 10.8259 8.108 9.75276ZM6.37744 3.76644C7.73767 3.76644 8.88782 4.26092 9.82788 5.24987C10.7751 6.23882 11.2486 7.69069 11.2486 9.60547C11.2486 11.6255 10.7857 13.165 9.85993 14.2241C8.94123 15.2832 7.75548 15.8127 6.30266 15.8127C5.37685 15.8127 4.60771 15.5848 3.99525 15.1289C3.66053 14.8764 3.33293 14.5082 3.01246 14.0242V20H0V4.01894H2.91632V5.71278C3.24391 5.2148 3.59287 4.82202 3.9632 4.53446C4.63976 4.02244 5.4445 3.76644 6.37744 3.76644Z" fill="white"/>
<path d="M20.2215 3.7454C20.2785 3.7454 20.3248 3.7489 20.3604 3.75592C20.4031 3.75592 20.4921 3.75942 20.6274 3.76644V6.83851C20.4352 6.81746 20.2642 6.80344 20.1147 6.79642C19.9651 6.78941 19.8441 6.7859 19.7515 6.7859C18.5266 6.7859 17.704 7.17868 17.2838 7.96423C17.0488 8.4061 16.9313 9.08645 16.9313 10.0053V15.4866H13.8654V4.01894H16.7711V6.01789C17.2411 5.25338 17.6506 4.73084 17.9995 4.45029C18.5693 3.98036 19.3099 3.7454 20.2215 3.7454Z" fill="white"/>
<path d="M28.0834 13.3719C28.9736 13.3719 29.6573 13.0598 30.1344 12.4356C30.6116 11.8113 30.8501 10.9241 30.8501 9.7738C30.8501 8.62353 30.6116 7.73979 30.1344 7.12257C29.6573 6.49833 28.9736 6.18622 28.0834 6.18622C27.1932 6.18622 26.5059 6.49833 26.0217 7.12257C25.5445 7.73979 25.3059 8.62353 25.3059 9.7738C25.3059 10.9241 25.5445 11.8113 26.0217 12.4356C26.5059 13.0598 27.1932 13.3719 28.0834 13.3719ZM34.0442 9.7738C34.0442 11.4571 33.5528 12.8985 32.57 14.0978C31.5872 15.2902 30.0952 15.8864 28.0941 15.8864C26.0929 15.8864 24.6009 15.2902 23.6181 14.0978C22.6353 12.8985 22.1439 11.4571 22.1439 9.7738C22.1439 8.11853 22.6353 6.6842 23.6181 5.4708C24.6009 4.25741 26.0929 3.65071 28.0941 3.65071C30.0952 3.65071 31.5872 4.25741 32.57 5.4708C33.5528 6.6842 34.0442 8.11853 34.0442 9.7738Z" fill="white"/>
<path d="M39.0432 11.8254C39.1073 12.3584 39.2461 12.7372 39.4598 12.9616C39.8372 13.3614 40.5352 13.5613 41.5536 13.5613C42.1518 13.5613 42.6254 13.4736 42.9743 13.2983C43.3304 13.1229 43.5084 12.8599 43.5084 12.5092C43.5084 12.1725 43.366 11.9165 43.0812 11.7412C42.7963 11.5658 41.7387 11.2642 39.9085 10.8364C38.5909 10.5138 37.6616 10.1105 37.1203 9.62651C36.5791 9.14957 36.3085 8.46221 36.3085 7.56444C36.3085 6.50535 36.7286 5.59705 37.569 4.83956C38.4165 4.07505 39.6058 3.69279 41.1369 3.69279C42.5898 3.69279 43.7719 3.98036 44.6835 4.5555C45.6022 5.12362 46.1292 6.10907 46.2645 7.51184H43.22C43.1773 7.12607 43.0669 6.82097 42.8889 6.59653C42.5541 6.18972 41.9844 5.98632 41.1797 5.98632C40.5174 5.98632 40.0438 6.08802 39.7589 6.29143C39.4812 6.49483 39.3423 6.7333 39.3423 7.00684C39.3423 7.35052 39.4918 7.59951 39.7909 7.75381C40.0901 7.91513 41.1476 8.19218 42.9636 8.58496C44.1743 8.86551 45.0823 9.28985 45.6877 9.85797C46.2859 10.4331 46.585 11.152 46.585 12.0147C46.585 13.151 46.1541 14.0803 45.2924 14.8027C44.4378 15.5181 43.1132 15.8759 41.3185 15.8759C39.4883 15.8759 38.1352 15.4971 37.2592 14.7396C36.3904 13.9751 35.9559 13.0037 35.9559 11.8254H39.0432Z" fill="white"/>
<path d="M48.0908 6.25986V4.12415H49.7145V0.925829H52.727V4.12415H54.6178V6.25986H52.727V12.3198C52.727 12.7898 52.7875 13.0843 52.9086 13.2036C53.0297 13.3158 53.4 13.3719 54.0196 13.3719C54.1122 13.3719 54.2083 13.3719 54.308 13.3719C54.4148 13.3649 54.5181 13.3579 54.6178 13.3509V15.5918L53.1757 15.6444C51.7371 15.6935 50.7543 15.448 50.2273 14.9079C49.8855 14.5643 49.7145 14.0347 49.7145 13.3193V6.25986H48.0908Z" fill="white"/>
<path d="M62.234 13.3719C63.1242 13.3719 63.8079 13.0598 64.285 12.4356C64.7622 11.8113 65.0007 10.9241 65.0007 9.7738C65.0007 8.62353 64.7622 7.73979 64.285 7.12257C63.8079 6.49833 63.1242 6.18622 62.234 6.18622C61.3438 6.18622 60.6565 6.49833 60.1723 7.12257C59.6951 7.73979 59.4565 8.62353 59.4565 9.7738C59.4565 10.9241 59.6951 11.8113 60.1723 12.4356C60.6565 13.0598 61.3438 13.3719 62.234 13.3719ZM68.1948 9.7738C68.1948 11.4571 67.7034 12.8985 66.7206 14.0978C65.7378 15.2902 64.2458 15.8864 62.2447 15.8864C60.2435 15.8864 58.7515 15.2902 57.7687 14.0978C56.7859 12.8985 56.2945 11.4571 56.2945 9.7738C56.2945 8.11853 56.7859 6.6842 57.7687 5.4708C58.7515 4.25741 60.2435 3.65071 62.2447 3.65071C64.2458 3.65071 65.7378 4.25741 66.7206 5.4708C67.7034 6.6842 68.1948 8.11853 68.1948 9.7738Z" fill="white"/>
<path d="M76.3131 4.01894H79.4003L81.1736 12.2777L82.9896 4.01894H86.1623L82.7866 15.4866H79.6567L77.83 7.13309L75.9819 15.4866H72.8199L69.551 4.01894H72.8199L74.6359 12.2462L76.3131 4.01894Z" fill="white"/>
<path d="M92.8811 6.18622C92.1761 6.18622 91.6277 6.40365 91.236 6.83851C90.8515 7.27337 90.6093 7.86253 90.5096 8.606H95.242C95.1921 7.81343 94.9464 7.21375 94.5049 6.80694C94.0705 6.39313 93.5292 6.18622 92.8811 6.18622ZM92.8811 3.71383C93.8497 3.71383 94.7221 3.89269 95.4984 4.25039C96.2746 4.6081 96.9156 5.17272 97.4212 5.94424C97.877 6.62458 98.1725 7.41364 98.3078 8.31141C98.3862 8.83745 98.4182 9.59495 98.404 10.5839H90.4349C90.4776 11.7342 90.8444 12.5408 91.5352 13.0037C91.9553 13.2913 92.461 13.435 93.0521 13.435C93.6788 13.435 94.188 13.2597 94.5797 12.909C94.7933 12.7196 94.982 12.4566 95.1458 12.1199H98.2544C98.1761 12.8003 97.8165 13.4911 97.1755 14.1925C96.1785 15.3077 94.7826 15.8653 92.988 15.8653C91.5067 15.8653 90.1998 15.3954 89.0675 14.4556C87.9352 13.5157 87.369 11.9867 87.369 9.86849C87.369 7.88357 87.8782 6.36156 88.8966 5.30247C89.9221 4.24338 91.2503 3.71383 92.8811 3.71383Z" fill="white"/>
<path d="M107.195 3.76644C108.726 3.76644 109.923 4.31001 110.785 5.39716C111.653 6.48431 112.088 7.88708 112.088 9.60547C112.088 11.387 111.661 12.8634 110.806 14.0347C109.951 15.206 108.758 15.7917 107.227 15.7917C106.266 15.7917 105.493 15.6023 104.909 15.2236C104.56 14.9991 104.183 14.6063 103.777 14.0452V15.4866H100.796V0H103.83V5.51289C104.215 4.97984 104.639 4.57303 105.101 4.29248C105.65 3.94179 106.348 3.76644 107.195 3.76644ZM106.415 13.3193C107.199 13.3193 107.808 13.0072 108.242 12.383C108.677 11.7587 108.894 10.9381 108.894 9.92109C108.894 9.10749 108.787 8.43416 108.573 7.9011C108.167 6.89111 107.42 6.38611 106.33 6.38611C105.226 6.38611 104.468 6.88059 104.055 7.86954C103.841 8.39558 103.734 9.07592 103.734 9.91057C103.734 10.8925 103.955 11.7061 104.396 12.3514C104.838 12.9967 105.511 13.3193 106.415 13.3193Z" fill="white"/>
<path d="M114.662 12.3514H117.899V15.4866H114.662V12.3514Z" fill="white"/>
<path d="M127.694 3.7454C128.898 3.7454 129.88 4.05751 130.642 4.68175C131.412 5.29897 131.796 6.32649 131.796 7.76433V15.4866H128.677V8.51131C128.677 7.90812 128.595 7.4452 128.431 7.12257C128.132 6.5334 127.562 6.23882 126.722 6.23882C125.689 6.23882 124.981 6.67017 124.596 7.53288C124.397 7.98878 124.297 8.57093 124.297 9.27933V15.4866H121.263V4.03998H124.201V5.71278C124.593 5.12362 124.963 4.69928 125.312 4.43977C125.939 3.97685 126.733 3.7454 127.694 3.7454Z" fill="white"/>
<path d="M139.647 6.18622C138.942 6.18622 138.394 6.40365 138.002 6.83851C137.618 7.27337 137.376 7.86253 137.276 8.606H142.008C141.958 7.81343 141.713 7.21375 141.271 6.80694C140.837 6.39313 140.295 6.18622 139.647 6.18622ZM139.647 3.71383C140.616 3.71383 141.488 3.89269 142.265 4.25039C143.041 4.6081 143.682 5.17272 144.187 5.94424C144.643 6.62458 144.939 7.41364 145.074 8.31141C145.152 8.83745 145.184 9.59495 145.17 10.5839H137.201C137.244 11.7342 137.611 12.5408 138.301 13.0037C138.722 13.2913 139.227 13.435 139.818 13.435C140.445 13.435 140.954 13.2597 141.346 12.909C141.559 12.7196 141.748 12.4566 141.912 12.1199H145.021C144.942 12.8003 144.583 13.4911 143.942 14.1925C142.945 15.3077 141.549 15.8653 139.754 15.8653C138.273 15.8653 136.966 15.3954 135.834 14.4556C134.701 13.5157 134.135 11.9867 134.135 9.86849C134.135 7.88357 134.644 6.36156 135.663 5.30247C136.688 4.24338 138.016 3.71383 139.647 3.71383Z" fill="white"/>
<path d="M146.473 6.25986V4.12415H148.097V0.925829H151.109V4.12415H153V6.25986H151.109V12.3198C151.109 12.7898 151.17 13.0843 151.291 13.2036C151.412 13.3158 151.782 13.3719 152.402 13.3719C152.494 13.3719 152.59 13.3719 152.69 13.3719C152.797 13.3649 152.9 13.3579 153 13.3509V15.5918L151.558 15.6444C150.119 15.6935 149.137 15.448 148.609 14.9079C148.268 14.5643 148.097 14.0347 148.097 13.3193V6.25986H146.473Z" fill="white"/>
</svg>
