<svg width="88" height="22" viewBox="0 0 88 22" fill="none" xmlns="http://www.w3.org/2000/svg">
<path d="M4.07227 12.1123C4.17253 12.8356 4.36947 13.3763 4.66309 13.7344C5.2002 14.3861 6.12044 14.7119 7.42383 14.7119C8.20443 14.7119 8.83822 14.626 9.3252 14.4541C10.249 14.1247 10.7109 13.5124 10.7109 12.6172C10.7109 12.0944 10.4818 11.6898 10.0234 11.4033C9.5651 11.124 8.84538 10.877 7.86426 10.6621L6.18848 10.2861C4.54134 9.91374 3.40267 9.50911 2.77246 9.07227C1.7054 8.3418 1.17188 7.19954 1.17188 5.64551C1.17188 4.22754 1.6875 3.04948 2.71875 2.11133C3.75 1.17318 5.26465 0.704102 7.2627 0.704102C8.93132 0.704102 10.3529 1.14811 11.5273 2.03613C12.709 2.91699 13.3285 4.19889 13.3857 5.88184H10.2061C10.1488 4.92936 9.7334 4.2526 8.95996 3.85156C8.44434 3.58659 7.80339 3.4541 7.03711 3.4541C6.1849 3.4541 5.50456 3.62598 4.99609 3.96973C4.48763 4.31348 4.2334 4.79329 4.2334 5.40918C4.2334 5.97494 4.48405 6.39746 4.98535 6.67676C5.30762 6.86296 5.99512 7.08138 7.04785 7.33203L9.77637 7.9873C10.9723 8.27376 11.8747 8.6569 12.4834 9.13672C13.4287 9.88151 13.9014 10.9593 13.9014 12.3701C13.9014 13.8167 13.3464 15.0199 12.2363 15.9795C11.1335 16.932 9.57227 17.4082 7.55273 17.4082C5.49023 17.4082 3.86816 16.9391 2.68652 16.001C1.50488 15.0557 0.914062 13.7594 0.914062 12.1123H4.07227Z" fill="white"/>
<path d="M24.7759 11.1455C24.7759 10.2432 24.5682 9.44466 24.1529 8.75C23.7446 8.05534 23.0786 7.70801 22.1548 7.70801C21.0448 7.70801 20.2821 8.23438 19.8667 9.28711C19.6519 9.8457 19.5445 10.5547 19.5445 11.4141C19.5445 12.7747 19.9061 13.7308 20.6294 14.2822C21.0591 14.6045 21.5676 14.7656 22.1548 14.7656C23.007 14.7656 23.6551 14.4362 24.0991 13.7773C24.5503 13.1185 24.7759 12.2412 24.7759 11.1455ZM23.0357 5.0332C24.4035 5.0332 25.5601 5.53809 26.5054 6.54785C27.4579 7.55762 27.9341 9.04004 27.9341 10.9951C27.9341 13.0576 27.4686 14.6296 26.5376 15.7109C25.6138 16.7923 24.4214 17.333 22.9605 17.333C22.0295 17.333 21.256 17.1003 20.6402 16.6348C20.3036 16.377 19.9741 16.001 19.6519 15.5068V21.6084H16.6226V5.29102H19.5552V7.02051C19.8846 6.51204 20.2355 6.111 20.6079 5.81738C21.2883 5.2946 22.0975 5.0332 23.0357 5.0332Z" fill="white"/>
<path d="M37.2188 11.3066C37.0254 11.4284 36.8285 11.5286 36.628 11.6074C36.4346 11.679 36.1661 11.7471 35.8223 11.8115L35.1348 11.9404C34.4903 12.055 34.0284 12.1947 33.7491 12.3594C33.2764 12.6387 33.0401 13.0719 33.0401 13.6592C33.0401 14.182 33.1833 14.5615 33.4698 14.7979C33.7634 15.027 34.1179 15.1416 34.5332 15.1416C35.1921 15.1416 35.7972 14.9482 36.3487 14.5615C36.9073 14.1748 37.1973 13.4694 37.2188 12.4453V11.3066ZM35.3604 9.87793C35.9261 9.80632 36.3308 9.7168 36.5743 9.60938C37.0111 9.42318 37.2295 9.13314 37.2295 8.73926C37.2295 8.25944 37.0612 7.93001 36.7246 7.75098C36.3952 7.56478 35.9082 7.47168 35.2637 7.47168C34.5404 7.47168 34.0284 7.65072 33.7276 8.00879C33.5127 8.27376 33.3695 8.63184 33.2979 9.08301H30.3438C30.4082 8.05892 30.6947 7.21745 31.2032 6.55859C32.0124 5.52734 33.4017 5.01172 35.3711 5.01172C36.653 5.01172 37.7917 5.26595 38.7871 5.77441C39.7826 6.28288 40.2803 7.24251 40.2803 8.65332V14.0244C40.2803 14.3968 40.2875 14.848 40.3018 15.3779C40.3233 15.779 40.3842 16.0511 40.4844 16.1943C40.5847 16.3376 40.7351 16.4557 40.9356 16.5488V17H37.6055C37.5124 16.7637 37.448 16.5417 37.4121 16.334C37.3763 16.1263 37.3477 15.89 37.3262 15.625C36.9037 16.0833 36.4167 16.4736 35.8653 16.7959C35.2064 17.1755 34.4616 17.3652 33.6309 17.3652C32.571 17.3652 31.6937 17.0645 30.9991 16.4629C30.3116 15.8542 29.9678 14.9948 29.9678 13.8848C29.9678 12.4453 30.5228 11.4033 31.6329 10.7588C32.2416 10.4079 33.1368 10.1572 34.3184 10.0068L35.3604 9.87793Z" fill="white"/>
<path d="M45.9986 13.2617C46.063 13.806 46.2027 14.1927 46.4175 14.4219C46.7971 14.8301 47.4989 15.0342 48.523 15.0342C49.1246 15.0342 49.6008 14.9447 49.9517 14.7656C50.3098 14.5866 50.4888 14.318 50.4888 13.96C50.4888 13.6162 50.3456 13.3548 50.0591 13.1758C49.7727 12.9967 48.7092 12.6888 46.8687 12.252C45.5438 11.9225 44.6093 11.5107 44.065 11.0166C43.5207 10.5296 43.2486 9.8278 43.2486 8.91113C43.2486 7.82975 43.6711 6.90234 44.5162 6.12891C45.3684 5.34831 46.5643 4.95801 48.1041 4.95801C49.565 4.95801 50.7538 5.25163 51.6705 5.83887C52.5943 6.41895 53.1242 7.42513 53.2603 8.85742H50.1988C50.1558 8.46354 50.0448 8.15202 49.8658 7.92285C49.5292 7.50749 48.9563 7.2998 48.147 7.2998C47.481 7.2998 47.0048 7.40365 46.7183 7.61133C46.439 7.81901 46.2994 8.0625 46.2994 8.3418C46.2994 8.69271 46.4498 8.94694 46.7505 9.10449C47.0513 9.26921 48.1148 9.55208 49.941 9.95312C51.1584 10.2396 52.0715 10.6729 52.6802 11.2529C53.2818 11.8402 53.5826 12.5742 53.5826 13.4551C53.5826 14.6152 53.1493 15.5641 52.2828 16.3018C51.4234 17.0322 50.0914 17.3975 48.2867 17.3975C46.4462 17.3975 45.0855 17.0107 44.2046 16.2373C43.3309 15.4567 42.8941 14.4648 42.8941 13.2617H45.9986Z" fill="white"/>
<path d="M59.6124 3.89453H56.5079V1.06934H59.6124V3.89453ZM56.5079 5.29102H59.6124V17H56.5079V5.29102Z" fill="white"/>
<path d="M63.1607 1.21973H66.1686V9.74902L69.982 5.34473H73.774L69.6813 9.82422L73.9352 17H70.2398L67.4361 11.9941L66.1686 13.3154V17H63.1607V1.21973Z" fill="white"/>
<path d="M81.297 14.8408C82.1922 14.8408 82.8797 14.5221 83.3595 13.8848C83.8393 13.2474 84.0792 12.3415 84.0792 11.167C84.0792 9.99251 83.8393 9.09017 83.3595 8.45996C82.8797 7.82259 82.1922 7.50391 81.297 7.50391C80.4018 7.50391 79.7107 7.82259 79.2237 8.45996C78.7439 9.09017 78.504 9.99251 78.504 11.167C78.504 12.3415 78.7439 13.2474 79.2237 13.8848C79.7107 14.5221 80.4018 14.8408 81.297 14.8408ZM87.2911 11.167C87.2911 12.8857 86.797 14.3574 85.8087 15.582C84.8204 16.7995 83.3201 17.4082 81.3077 17.4082C79.2954 17.4082 77.795 16.7995 76.8068 15.582C75.8185 14.3574 75.3243 12.8857 75.3243 11.167C75.3243 9.47689 75.8185 8.01237 76.8068 6.77344C77.795 5.53451 79.2954 4.91504 81.3077 4.91504C83.3201 4.91504 84.8204 5.53451 85.8087 6.77344C86.797 8.01237 87.2911 9.47689 87.2911 11.167Z" fill="white"/>
</svg>
